mastitorrents.com
  
http://mastitorrents.com/forums/index.php
  
http://thepiratebay.se/user/HDvideos/0/7

I Me Aur Main (2013) Hindi 1CD DVDRip XviD MP3 ESubs

Format                                   : AVI
Format/Info                              : Audio Video Interleave
File size                                : 589 MiB
Duration                                 : 1h 45mn
Overall bit rate                         : 784 Kbps

Format                                   : MPEG-4 Visual
Format profile                           : Advanced Simple@L5
Format settings, BVOP                    : 3
Format settings, QPel                    : No
Format settings, GMC                     : No warppoints
Format settings, Matrix                  : Default (MPEG)
Codec ID                                 : XVID
Codec ID/Hint                            : XviD
Duration                                 : 1h 45mn
Bit rate                                 : 648 Kbps
Width                                    : 688 pixels
Height                                   : 288 pixels
Display aspect ratio                     : 2.40:1
Frame rate                               : 23.976 fps
Color space                              : YUV
Chroma subsampling                       : 4:2:0
Bit depth                                : 8 bits
Scan type                                : Progressive
Compression mode                         : Lossy
Bits/(Pixel*Frame)                       : 0.136
Stream size                              : 487 MiB (83%)
Writing library                          : XviD 1.2.1 (UTC 2008-12-04)

Format                                   : AC-3
Format/Info                              : Audio Coding 3
Mode extension                           : CM (complete main)
Format settings, Endianness              : Big
Codec ID                                 : 2000
Duration                                 : 1h 45mn
Bit rate mode                            : Constant
Bit rate                                 : 128 Kbps
Channel(s)                               : 6 channels
Channel positions                        : Front: L C R, Side: L R, LFE
Sampling rate                            : 48.0 KHz
Bit depth                                : 16 bits
Compression mode                         : Lossy
Stream size                              : 96.2 MiB (16%)
Alignment                                : Aligned on interleaves
Interleave, duration                     : 64 ms (1.53 video frames)
Interleave, preload duration             : 512 ms
Title                                    : K@rtik

Screens: 
http://img856.imageshack.us/img856/7163/imeaurmain2013001.jpg 
http://img201.imageshack.us/img201/4221/79745442.png 
http://img29.imageshack.us/img29/4004/53444505.png 
http://img716.imageshack.us/img716/6208/89235711.png 
http://img825.imageshack.us/img825/6033/11588444.png 
http://img195.imageshack.us/img195/746/49051267.png 
http://img692.imageshack.us/img692/3268/30013122v.png 
http://img849.imageshack.us/img849/9375/36710519.png 
http://img22.imageshack.us/img22/1859/58764627.png 
http://img16.imageshack.us/img16/5808/31266797.png 
http://img211.imageshack.us/img211/9979/28364097.png